<svg xmlns="http://www.w3.org/2000/svg" version="1.1" width="1024" height="680">
<rect x="0" y="0" width="1024" height="680" fill="#d6d5d0" />
<g transform="scale(4.000000) translate(0.5 0.5)">
<polygon fill="#3f5663" fill-opacity="0.501961" points="217,24 248,91 123,82" />
<polygon fill="#e7f7ff" fill-opacity="0.501961" points="271,-8 18,106 -16,0" />
<polygon fill="#597078" fill-opacity="0.501961" points="214,94 172,30 235,33" />
<polygon fill="#aebdc8" fill-opacity="0.501961" points="-16,71 192,50 136,98" />
<polygon fill="#f7e2c2" fill-opacity="0.501961" points="-16,152 233,83 271,185" />
<polygon fill="#484439" fill-opacity="0.501961" points="106,94 128,81 84,92" />
<polygon fill="#867e6c" fill-opacity="0.501961" points="163,95 229,91 163,69" />
<polygon fill="#d2ddf5" fill-opacity="0.501961" points="239,-16 271,24 221,102" />
<polygon fill="#000000" fill-opacity="0.501961" points="243,79 243,92 234,85" />
<polygon fill="#ebf1fd" fill-opacity="0.501961" points="184,55 117,-16 -16,51" />
<polygon fill="#fcedd7" fill-opacity="0.501961" points="-12,80 62,140 86,78" />
<polygon fill="#ebdcc2" fill-opacity="0.501961" points="172,139 159,73 -16,134" />
<polygon fill="#d5e2f6" fill-opacity="0.501961" points="216,-16 271,32 100,28" />
<polygon fill="#faebd2" fill-opacity="0.501961" points="168,89 199,84 215,94" />
<polygon fill="#8ba2aa" fill-opacity="0.501961" points="144,59 165,77 77,78" />
<polygon fill="#534634" fill-opacity="0.501961" points="211,74 223,70 222,93" />
<polygon fill="#e5dac4" fill-opacity="0.501961" points="-4,90 2,185 271,100" />
<polygon fill="#778990" fill-opacity="0.501961" points="221,39 237,77 165,30" />
<polygon fill="#515953" fill-opacity="0.501961" points="180,73 162,70 177,91" />
<polygon fill="#dfe6f1" fill-opacity="0.501961" points="56,72 167,-16 181,51" />
<polygon fill="#c1d9f3" fill-opacity="0.501961" points="211,75 191,80 178,74" />
<polygon fill="#8cadc8" fill-opacity="0.501961" points="-16,77 15,65 56,75" />
<polygon fill="#baccda" fill-opacity="0.501961" points="159,56 183,69 125,71" />
<polygon fill="#fbffff" fill-opacity="0.501961" points="63,82 -16,75 1,93" />
<polygon fill="#737e85" fill-opacity="0.501961" points="232,73 223,18 216,76" />
<polygon fill="#eef4fb" fill-opacity="0.501961" points="-16,78 -16,-4 99,-16" />
<polygon fill="#664f32" fill-opacity="0.501961" points="164,72 144,76 149,70" />
<polygon fill="#e2d7c6" fill-opacity="0.501961" points="231,132 219,100 236,55" />
<polygon fill="#1e0500" fill-opacity="0.501961" points="236,92 235,80 242,87" />
<polygon fill="#fbffff" fill-opacity="0.501961" points="161,81 159,74 140,80" />
<polygon fill="#505d62" fill-opacity="0.501961" points="176,80 205,87 209,79" />
<polygon fill="#fdffff" fill-opacity="0.501961" points="62,89 98,82 58,79" />
<polygon fill="#8a9aa9" fill-opacity="0.501961" points="226,-16 217,-15 223,18" />
<polygon fill="#e7dac6" fill-opacity="0.501961" points="220,179 271,132 223,75" />
<polygon fill="#d9e4f3" fill-opacity="0.501961" points="217,34 224,-10 68,-7" />
<polygon fill="#758583" fill-opacity="0.501961" points="235,33 173,33 216,55" />
<polygon fill="#b3c0db" fill-opacity="0.501961" points="271,72 229,80 234,56" />
<polygon fill="#677f8a" fill-opacity="0.501961" points="181,72 183,34 234,73" />
<polygon fill="#94adbd" fill-opacity="0.501961" points="83,80 58,69 121,71" />
<polygon fill="#362c26" fill-opacity="0.501961" points="93,94 107,88 104,93" />
<polygon fill="#e7ddca" fill-opacity="0.501961" points="84,185 206,95 -16,92" />
<polygon fill="#d2c0a6" fill-opacity="0.501961" points="0,141 -5,126 49,127" />
<polygon fill="#d6e0f1" fill-opacity="0.501961" points="152,53 106,71 46,57" />
<polygon fill="#e3d4bd" fill-opacity="0.501961" points="210,122 271,113 265,70" />
<polygon fill="#7b8c91" fill-opacity="0.501961" points="233,61 213,33 167,31" />
<polygon fill="#888275" fill-opacity="0.501961" points="142,82 151,71 120,84" />
<polygon fill="#abbdc8" fill-opacity="0.501961" points="185,60 143,58 128,79" />
<polygon fill="#575b58" fill-opacity="0.501961" points="166,84 176,76 163,94" />
<polygon fill="#d6e0f2" fill-opacity="0.501961" points="-16,67 25,51 80,68" />
<polygon fill="#f1e8d7" fill-opacity="0.501961" points="180,132 105,179 38,173" />
<polygon fill="#bcc5c4" fill-opacity="0.501961" points="85,91 99,89 74,66" />
<polygon fill="#47443a" fill-opacity="0.501961" points="222,70 217,72 221,90" />
<polygon fill="#9bb5c9" fill-opacity="0.501961" points="-16,78 18,79 5,66" />
<polygon fill="#ccb698" fill-opacity="0.501961" points="8,155 -9,166 28,155" />
<polygon fill="#d4deec" fill-opacity="0.501961" points="224,29 271,54 226,-16" />
<polygon fill="#55534a" fill-opacity="0.501961" points="196,82 220,87 213,79" />
<polygon fill="#eae1d4" fill-opacity="0.501961" points="147,78 111,89 141,91" />
<polygon fill="#a3937e" fill-opacity="0.501961" points="113,95 105,91 123,92" />
<polygon fill="#e9dfcd" fill-opacity="0.501961" points="165,156 168,88 243,154" />
<polygon fill="#dbceb7" fill-opacity="0.501961" points="213,107 264,90 176,95" />
<polygon fill="#6f7066" fill-opacity="0.501961" points="217,39 226,34 237,37" />
<polygon fill="#f7faff" fill-opacity="0.501961" points="30,91 -16,78 70,79" />
<polygon fill="#f0e6d4" fill-opacity="0.501961" points="193,84 205,89 177,90" />
<polygon fill="#e8decd" fill-opacity="0.501961" points="270,135 215,88 210,169" />
<polygon fill="#6c6e6c" fill-opacity="0.501961" points="211,75 219,75 211,95" />
<polygon fill="#e3e7ee" fill-opacity="0.501961" points="120,59 179,36 180,53" />
<polygon fill="#2c170e" fill-opacity="0.501961" points="240,79 235,80 244,86" />
<polygon fill="#778b96" fill-opacity="0.501961" points="186,54 227,31 231,74" />
<polygon fill="#a1bacf" fill-opacity="0.501961" points="70,72 32,78 29,67" />
<polygon fill="#8a9993" fill-opacity="0.501961" points="161,57 130,64 145,56" />
<polygon fill="#758185" fill-opacity="0.501961" points="196,84 169,77 162,87" />
<polygon fill="#d5c6b1" fill-opacity="0.501961" points="195,178 227,175 260,146" />
<polygon fill="#47667e" fill-opacity="0.501961" points="226,72 192,68 219,64" />
<polygon fill="#5e594c" fill-opacity="0.501961" points="180,78 174,75 176,93" />
<polygon fill="#c3d0dc" fill-opacity="0.501961" points="198,75 210,77 194,79" />
<polygon fill="#d8e2ef" fill-opacity="0.501961" points="221,-16 222,31 179,27" />
<polygon fill="#a3a4ac" fill-opacity="0.501961" points="223,51 227,72 229,46" />
<polygon fill="#635746" fill-opacity="0.501961" points="148,77 142,74 153,72" />
<polygon fill="#e6ebef" fill-opacity="0.501961" points="152,58 -16,53 154,7" />
<polygon fill="#fbfefb" fill-opacity="0.501961" points="98,84 100,78 93,80" />
<polygon fill="#a7a9a5" fill-opacity="0.501961" points="90,93 80,77 85,94" />
<polygon fill="#8e9587" fill-opacity="0.501961" points="113,69 86,78 100,78" />
<polygon fill="#e0d4c0" fill-opacity="0.501961" points="-10,120 41,154 99,111" />
<polygon fill="#697773" fill-opacity="0.501961" points="173,56 189,62 194,56" />
<polygon fill="#d4dce9" fill-opacity="0.501961" points="257,-16 271,67 229,56" />
<polygon fill="#63594b" fill-opacity="0.501961" points="188,93 180,94 175,91" />
<polygon fill="#757969" fill-opacity="0.501961" points="175,33 195,47 194,33" />
<polygon fill="#d0dbe8" fill-opacity="0.501961" points="174,59 176,69 181,59" />
<polygon fill="#80959a" fill-opacity="0.501961" points="172,34 166,31 181,30" />
<polygon fill="#8099a5" fill-opacity="0.501961" points="208,61 187,69 163,64" />
<polygon fill="#808485" fill-opacity="0.501961" points="190,82 151,84 170,77" />
<polygon fill="#bec8da" fill-opacity="0.501961" points="231,56 271,63 232,78" />
<polygon fill="#f2e7d9" fill-opacity="0.501961" points="244,89 244,78 271,75" />
<polygon fill="#f6f7fa" fill-opacity="0.501961" points="150,82 164,79 149,77" />
<polygon fill="#ffffff" fill-opacity="0.501961" points="89,83 83,85 87,80" />
<polygon fill="#ece3d3" fill-opacity="0.501961" points="149,92 164,84 138,85" />
<polygon fill="#d1bfa3" fill-opacity="0.501961" points="145,87 128,94 165,94" />
<polygon fill="#c1c8c6" fill-opacity="0.501961" points="113,76 82,89 101,88" />
<polygon fill="#fbfeff" fill-opacity="0.501961" points="81,88 47,80 79,78" />
<polygon fill="#655f51" fill-opacity="0.501961" points="124,80 130,82 120,83" />
</g>
</svg>