<svg xmlns="http://www.w3.org/2000/svg" version="1.1" width="1024" height="676">
<rect x="0" y="0" width="1024" height="676" fill="#7398a7" />
<g transform="scale(4.000000) translate(0.5 0.5)">
<polygon fill="#29330a" fill-opacity="0.501961" points="59,91 271,168 -16,167" />
<polygon fill="#bde0ff" fill-opacity="0.501961" points="249,-16 271,95 -16,70" />
<polygon fill="#5e1518" fill-opacity="0.501961" points="87,43 60,31 58,143" />
<polygon fill="#86b8ee" fill-opacity="0.501961" points="269,5 -16,104 3,-16" />
<polygon fill="#308483" fill-opacity="0.501961" points="271,122 49,96 244,184" />
<polygon fill="#6d2f00" fill-opacity="0.501961" points="168,169 62,139 -16,168" />
<polygon fill="#066981" fill-opacity="0.501961" points="-16,157 -16,90 73,114" />
<polygon fill="#a04d3c" fill-opacity="0.501961" points="55,78 80,22 82,166" />
<polygon fill="#bedbe5" fill-opacity="0.501961" points="271,27 271,89 66,88" />
<polygon fill="#be8254" fill-opacity="0.501961" points="4,150 18,175 107,120" />
<polygon fill="#b8d2d7" fill-opacity="0.501961" points="58,21 -16,87 58,102" />
<polygon fill="#317475" fill-opacity="0.501961" points="189,79 202,166 84,149" />
<polygon fill="#d7684f" fill-opacity="0.501961" points="107,115 66,147 154,111" />
<polygon fill="#371c16" fill-opacity="0.501961" points="60,60 87,173 56,182" />
<polygon fill="#461d1e" fill-opacity="0.501961" points="77,31 61,71 60,34" />
<polygon fill="#171200" fill-opacity="0.501961" points="136,152 31,166 96,177" />
<polygon fill="#6f818b" fill-opacity="0.501961" points="64,134 64,90 222,91" />
<polygon fill="#78abdc" fill-opacity="0.501961" points="149,-16 271,5 47,58" />
<polygon fill="#df4415" fill-opacity="0.501961" points="79,74 82,138 71,106" />
<polygon fill="#3f8ea8" fill-opacity="0.501961" points="55,133 -6,96 59,96" />
<polygon fill="#000000" fill-opacity="0.501961" points="60,113 74,99 74,114" />
<polygon fill="#6ba9e4" fill-opacity="0.501961" points="208,-1 -16,-15 -15,52" />
<polygon fill="#c2ffff" fill-opacity="0.501961" points="72,62 62,74 73,76" />
<polygon fill="#e46b42" fill-opacity="0.501961" points="76,115 73,154 84,152" />
<polygon fill="#000000" fill-opacity="0.501961" points="74,62 58,58 77,52" />
<polygon fill="#004e71" fill-opacity="0.501961" points="94,151 79,143 120,126" />
<polygon fill="#9ae4f7" fill-opacity="0.501961" points="73,88 66,85 72,105" />
<polygon fill="#1c6359" fill-opacity="0.501961" points="130,156 234,184 271,152" />
<polygon fill="#285b74" fill-opacity="0.501961" points="199,92 158,103 128,91" />
<polygon fill="#226b75" fill-opacity="0.501961" points="0,148 59,132 -7,104" />
<polygon fill="#4398ae" fill-opacity="0.501961" points="82,98 154,103 81,127" />
<polygon fill="#100000" fill-opacity="0.501961" points="76,33 63,37 79,40" />
<polygon fill="#000000" fill-opacity="0.501961" points="62,87 74,79 60,75" />
<polygon fill="#adcbd5" fill-opacity="0.501961" points="79,91 157,87 81,34" />
<polygon fill="#686000" fill-opacity="0.501961" points="-6,141 5,178 34,170" />
<polygon fill="#b39887" fill-opacity="0.501961" points="23,150 50,135 73,139" />
<polygon fill="#c56f58" fill-opacity="0.501961" points="131,117 179,103 157,101" />
<polygon fill="#aae9ff" fill-opacity="0.501961" points="65,53 69,40 75,54" />
<polygon fill="#a4c4d7" fill-opacity="0.501961" points="-14,105 -6,24 60,58" />
<polygon fill="#94c2ea" fill-opacity="0.501961" points="96,66 257,58 271,5" />
<polygon fill="#250000" fill-opacity="0.501961" points="68,111 60,86 58,135" />
<polygon fill="#41847b" fill-opacity="0.501961" points="204,161 271,146 139,123" />
<polygon fill="#ff875c" fill-opacity="0.501961" points="83,66 76,57 79,36" />
<polygon fill="#257e80" fill-opacity="0.501961" points="155,111 146,150 79,151" />
<polygon fill="#7f0c00" fill-opacity="0.501961" points="65,48 61,60 61,34" />
<polygon fill="#61a7b0" fill-opacity="0.501961" points="271,135 178,131 240,90" />
<polygon fill="#433120" fill-opacity="0.501961" points="78,137 38,152 59,165" />
<polygon fill="#a6c8d7" fill-opacity="0.501961" points="11,96 58,88 61,33" />
<polygon fill="#9adbfa" fill-opacity="0.501961" points="74,73 64,65 74,60" />
<polygon fill="#ae9558" fill-opacity="0.501961" points="31,143 2,149 36,168" />
<polygon fill="#090000" fill-opacity="0.501961" points="60,77 75,85 74,78" />
<polygon fill="#b7c2c4" fill-opacity="0.501961" points="69,102 64,91 72,84" />
<polygon fill="#3f8e99" fill-opacity="0.501961" points="245,128 134,129 174,104" />
<polygon fill="#2b3e52" fill-opacity="0.501961" points="179,102 194,100 186,112" />
<polygon fill="#f48661" fill-opacity="0.501961" points="75,116 83,134 80,91" />
<polygon fill="#c1d3d5" fill-opacity="0.501961" points="260,60 163,84 258,90" />
<polygon fill="#571415" fill-opacity="0.501961" points="74,62 79,51 76,37" />
<polygon fill="#5a4a08" fill-opacity="0.501961" points="72,153 121,169 135,154" />
<polygon fill="#100e00" fill-opacity="0.501961" points="51,160 119,170 1,184" />
<polygon fill="#005573" fill-opacity="0.501961" points="120,137 145,116 81,141" />
<polygon fill="#2792a6" fill-opacity="0.501961" points="72,111 66,114 73,126" />
<polygon fill="#5b9ad2" fill-opacity="0.501961" points="123,2 -14,16 15,-16" />
<polygon fill="#00071e" fill-opacity="0.501961" points="73,153 72,146 50,153" />
<polygon fill="#180004" fill-opacity="0.501961" points="74,114 58,106 73,102" />
<polygon fill="#88b3db" fill-opacity="0.501961" points="58,63 61,21 -16,29" />
<polygon fill="#556a4f" fill-opacity="0.501961" points="36,159 67,157 53,151" />
<polygon fill="#ff8e6d" fill-opacity="0.501961" points="81,46 77,35 77,55" />
<polygon fill="#9d4125" fill-opacity="0.501961" points="65,137 53,152 89,135" />
<polygon fill="#2d010a" fill-opacity="0.501961" points="65,62 61,77 60,48" />
<polygon fill="#fe8c6c" fill-opacity="0.501961" points="65,86 63,102 67,100" />
<polygon fill="#ff8f6b" fill-opacity="0.501961" points="77,145 82,152 81,141" />
<polygon fill="#932c10" fill-opacity="0.501961" points="79,79 77,59 74,71" />
<polygon fill="#2d6971" fill-opacity="0.501961" points="58,133 -16,119 10,148" />
<polygon fill="#3e7968" fill-opacity="0.501961" points="75,154 131,127 196,152" />
<polygon fill="#bdbcce" fill-opacity="0.501961" points="64,55 65,42 74,40" />
<polygon fill="#220007" fill-opacity="0.501961" points="64,110 56,135 65,136" />
<polygon fill="#847382" fill-opacity="0.501961" points="191,97 187,75 175,105" />
<polygon fill="#5290a4" fill-opacity="0.501961" points="-8,96 57,117 57,95" />
<polygon fill="#c38d6e" fill-opacity="0.501961" points="75,137 114,122 83,125" />
<polygon fill="#470600" fill-opacity="0.501961" points="63,31 66,40 61,47" />
<polygon fill="#873e29" fill-opacity="0.501961" points="72,92 77,103 79,73" />
<polygon fill="#b4b8ac" fill-opacity="0.501961" points="14,84 -16,94 45,96" />
<polygon fill="#8e9049" fill-opacity="0.501961" points="144,162 127,167 130,159" />
<polygon fill="#3c6a82" fill-opacity="0.501961" points="136,91 137,98 110,95" />
<polygon fill="#ca3916" fill-opacity="0.501961" points="65,74 61,81 64,66" />
<polygon fill="#88b7dd" fill-opacity="0.501961" points="177,32 81,20 82,63" />
<polygon fill="#4d190c" fill-opacity="0.501961" points="74,145 69,141 74,126" />
<polygon fill="#76aebc" fill-opacity="0.501961" points="191,110 252,92 271,111" />
<polygon fill="#20000b" fill-opacity="0.501961" points="76,60 60,61 62,54" />
<polygon fill="#aea9b6" fill-opacity="0.501961" points="12,50 -16,71 45,47" />
<polygon fill="#c06147" fill-opacity="0.501961" points="62,124 67,134 66,113" />
<polygon fill="#684f06" fill-opacity="0.501961" points="53,158 65,168 68,154" />
<polygon fill="#00455b" fill-opacity="0.501961" points="80,152 111,131 85,139" />
<polygon fill="#614d00" fill-opacity="0.501961" points="4,181 -16,149 11,150" />
<polygon fill="#9abdcd" fill-opacity="0.501961" points="183,90 166,90 188,74" />
<polygon fill="#77a8d7" fill-opacity="0.501961" points="271,-2 106,32 128,-16" />
<polygon fill="#417184" fill-opacity="0.501961" points="203,93 144,90 147,106" />
<polygon fill="#569db3" fill-opacity="0.501961" points="73,102 74,86 66,102" />
<polygon fill="#ae5e43" fill-opacity="0.501961" points="120,124 136,111 160,109" />
<polygon fill="#22665b" fill-opacity="0.501961" points="143,163 125,144 184,144" />
</g>
</svg>